<svg width="215" height="76" viewBox="0 0 215 76" fill="none" xmlns="http://www.w3.org/2000/svg">
<g filter="url(#filter0_d_218_9017)">
<rect width="211" height="76" fill="url(#paint0_linear_218_9017)"/>
<path d="M83.2336 28.537C83.2336 28.2404 82.9996 28 82.711 28C82.4224 28 82.1885 28.2404 82.1885 28.537V31.629C82.1885 31.7858 82.0039 31.8644 81.896 31.7535L80.3581 30.1731C80.154 29.9634 79.8231 29.9634 79.6191 30.1731C79.415 30.3828 79.415 30.7228 79.6191 30.9325L81.8874 33.2634C82.0802 33.4615 82.1885 33.7302 82.1885 34.0104V36.762C82.1885 36.8976 82.0457 36.9823 81.9315 36.9145L79.6051 35.5343C79.3689 35.3942 79.1967 35.1635 79.1261 34.8928L78.2958 31.7088C78.2211 31.4223 77.9346 31.2523 77.6559 31.3291C77.3771 31.4058 77.2117 31.7003 77.2864 31.9867L77.8493 34.1455C77.8888 34.297 77.7303 34.422 77.5981 34.3436L74.9997 32.802C74.7498 32.6537 74.4302 32.7417 74.2859 32.9985C74.1416 33.2553 74.2272 33.5837 74.4771 33.732L77.0785 35.2754C77.2107 35.3538 77.1846 35.5573 77.0371 35.5979L74.9318 36.1776C74.653 36.2543 74.4876 36.5488 74.5623 36.8352C74.6369 37.1217 74.9235 37.2917 75.2022 37.2149L78.3054 36.3605C78.5687 36.288 78.8493 36.326 79.0854 36.466L81.4106 37.8455C81.5248 37.9133 81.5248 38.0827 81.4106 38.1505L79.0808 39.5327C78.8447 39.6728 78.5641 39.7107 78.3008 39.6382L75.2022 38.7851C74.9235 38.7083 74.6369 38.8783 74.5623 39.1648C74.4876 39.4512 74.653 39.7457 74.9318 39.8224L77.0326 40.4009C77.18 40.4415 77.2061 40.645 77.0739 40.7234L74.4755 42.265C74.2255 42.4133 74.1399 42.7417 74.2842 42.9985C74.4285 43.2553 74.7481 43.3433 74.998 43.1951L77.5993 41.6517C77.7315 41.5733 77.89 41.6983 77.8505 41.8498L77.2864 44.0133C77.2117 44.2997 77.3771 44.5942 77.6559 44.6709C77.9346 44.7477 78.2211 44.5777 78.2958 44.2912L79.1273 41.1025C79.1979 40.8318 79.3702 40.6011 79.6063 40.461L81.9315 39.0815C82.0457 39.0138 82.1885 39.0985 82.1885 39.234V41.9984C82.1885 42.2786 82.0802 42.5473 81.8874 42.7454L79.6191 45.0763C79.415 45.286 79.415 45.626 79.6191 45.8357C79.8231 46.0454 80.154 46.0454 80.3581 45.8357L81.896 44.2553C82.0039 44.1444 82.1885 44.223 82.1885 44.3798V47.463C82.1885 47.7596 82.4224 48 82.711 48C82.9996 48 83.2336 47.7596 83.2336 47.463V44.3764C83.2336 44.2195 83.4181 44.141 83.526 44.2519L85.0673 45.8357C85.2714 46.0454 85.6022 46.0454 85.8063 45.8357C86.0103 45.626 86.0103 45.286 85.8063 45.0763L83.5346 42.7419C83.3419 42.5438 83.2336 42.2752 83.2336 41.995V39.232C83.2336 39.0965 83.3763 39.0118 83.4905 39.0796L85.8117 40.4566C86.0478 40.5967 86.2201 40.8275 86.2906 41.0981L87.1221 44.2868C87.1968 44.5733 87.4833 44.7433 87.7621 44.6665C88.0408 44.5898 88.2063 44.2953 88.1316 44.0089L87.5674 41.8454C87.5279 41.6939 87.6864 41.5689 87.8186 41.6473L90.4273 43.1951C90.6773 43.3433 90.9968 43.2553 91.1411 42.9985C91.2854 42.7417 91.1998 42.4133 90.9499 42.265L88.344 40.719C88.2118 40.6406 88.2379 40.4371 88.3854 40.3965L90.4862 39.818C90.765 39.7413 90.9304 39.4468 90.8557 39.1604C90.781 38.8739 90.4945 38.7039 90.2157 38.7807L87.1171 39.6338C86.8538 39.7063 86.5732 39.6684 86.3371 39.5283L84.0148 38.1505C83.9005 38.0827 83.9005 37.9133 84.0148 37.8455L86.3325 36.4704C86.5686 36.3304 86.8492 36.2924 87.1126 36.3649L90.2157 37.2193C90.4945 37.2961 90.781 37.1261 90.8557 36.8396C90.9304 36.5532 90.765 36.2588 90.4862 36.182L88.3808 35.6023C88.2334 35.5617 88.2073 35.3582 88.3395 35.2798L90.9482 33.732C91.1981 33.5837 91.2838 33.2553 91.1395 32.9985C90.9952 32.7417 90.6756 32.6537 90.4257 32.802L87.8198 34.348C87.6876 34.4264 87.5292 34.3014 87.5687 34.1499L88.1316 31.9911C88.2063 31.7047 88.0408 31.4102 87.7621 31.3335C87.4833 31.2567 87.1968 31.4267 87.1221 31.7132L86.2918 34.8972C86.2213 35.1679 86.049 35.3986 85.8129 35.5387L83.4905 36.9165C83.3763 36.9842 83.2336 36.8995 83.2336 36.764V34.0138C83.2336 33.7336 83.3419 33.465 83.5346 33.2669L85.8063 30.9325C86.0103 30.7228 86.0103 30.3828 85.8063 30.1731C85.6022 29.9634 85.2714 29.9634 85.0673 30.1731L83.526 31.7569C83.4181 31.8678 83.2336 31.7893 83.2336 31.6324V28.537Z" fill="#95A4FC"/>
<path d="M113.345 42.6154V37.2308C113.345 35.9563 112.341 34.9231 111.104 34.9231C109.866 34.9231 108.862 35.9563 108.862 37.2308V42.6154H107.368V37.2308C107.368 35.1066 109.04 33.3846 111.104 33.3846C113.167 33.3846 114.839 35.1066 114.839 37.2308V42.6154H113.345Z" fill="#1C1C1C"/>
<path fill-rule="evenodd" clip-rule="evenodd" d="M121.563 41.077C123.214 41.077 124.552 39.6994 124.552 38C124.552 36.3007 123.214 34.9231 121.563 34.9231C119.913 34.9231 118.575 36.3007 118.575 38C118.575 39.6994 119.913 41.077 121.563 41.077ZM121.563 42.6154C124.039 42.6154 126.046 40.549 126.046 38C126.046 35.451 124.039 33.3846 121.563 33.3846C119.088 33.3846 117.081 35.451 117.081 38C117.081 40.549 119.088 42.6154 121.563 42.6154Z" fill="#95A4FC"/>
<path d="M127.54 33.3846L128.949 41.3474C129.241 42.9991 131.383 43.0526 131.743 41.4172L132.578 36.8784C132.609 36.7116 132.826 36.715 132.852 36.8826L133.555 41.3498C133.867 42.9989 136.012 43.0201 136.351 41.3774L138 33.3846H136.55L135.099 41.0465C135.067 41.2112 134.854 41.209 134.825 41.0437L133.507 33.3846H132.047L130.504 41.069C130.471 41.2332 130.257 41.2284 130.23 41.0629L128.984 33.3846H127.54Z" fill="#1C1C1C"/>
<path d="M101.687 42.6154C102.736 42.6154 103.572 42.3903 104.194 41.9212C104.816 41.4522 105.126 40.8143 105.126 39.97C105.126 39.2383 104.874 38.6942 104.388 38.3002C103.883 37.9062 103.222 37.5685 102.386 37.2683C101.823 37.0432 101.337 36.8368 100.968 36.6492C100.598 36.4616 100.404 36.1801 100.404 35.8049C100.404 35.4672 100.54 35.2045 100.832 35.0357C101.123 34.8668 101.512 34.7918 101.998 34.7918C102.367 34.7918 102.736 34.8481 103.086 34.9606C103.416 35.0732 103.766 35.2233 104.135 35.4297L104.738 34.1539C104.33 33.8912 103.883 33.7036 103.416 33.5723C102.95 33.4409 102.483 33.3846 101.998 33.3846C101.026 33.3846 100.249 33.591 99.6461 34.0225C99.0437 34.4541 98.7522 35.0544 98.7716 35.8237C98.791 36.5366 99.0437 37.0807 99.5489 37.4559C100.035 37.8312 100.696 38.1689 101.531 38.4691C102.095 38.6755 102.561 38.8818 102.93 39.0882C103.3 39.2946 103.475 39.6135 103.475 40.0263C103.475 40.4015 103.319 40.683 103.008 40.8893C102.678 41.0957 102.231 41.1895 101.628 41.1895C101.22 41.1895 100.793 41.1145 100.365 40.9831C99.9376 40.8518 99.4906 40.6454 99.0048 40.3265L98.4023 41.6586C98.8882 41.9588 99.4129 42.1839 99.9376 42.3527C100.462 42.5216 101.045 42.6154 101.687 42.6154Z" fill="#1C1C1C"/>
</g>
<defs>
<filter id="filter0_d_218_9017" x="-4" y="0" width="219" height="84" filterUnits="userSpaceOnUse" color-interpolation-filters="sRGB">
<feFlood flood-opacity="0" result="BackgroundImageFix"/>
<feColorMatrix in="SourceAlpha" type="matrix" values="0 0 0 0 0 0 0 0 0 0 0 0 0 0 0 0 0 0 127 0" result="hardAlpha"/>
<feOffset dy="4"/>
<feGaussianBlur stdDeviation="2"/>
<feComposite in2="hardAlpha" operator="out"/>
<feColorMatrix type="matrix" values="0 0 0 0 0 0 0 0 0 0 0 0 0 0 0 0 0 0 0.25 0"/>
<feBlend mode="normal" in2="BackgroundImageFix" result="effect1_dropShadow_218_9017"/>
<feBlend mode="normal" in="SourceGraphic" in2="effect1_dropShadow_218_9017" result="shape"/>
</filter>
<linearGradient id="paint0_linear_218_9017" x1="105.5" y1="0" x2="105.5" y2="18.7467" gradientUnits="userSpaceOnUse">
<stop stop-color="white" stop-opacity="0"/>
<stop offset="1" stop-color="white"/>
</linearGradient>
</defs>
</svg>
