<svg width="20" height="20" viewBox="0 0 20 20" fill="none" xmlns="http://www.w3.org/2000/svg">
<path d="M10.3438 14.8985L14.2812 17.3985C14.789 17.7188 15.414 17.2422 15.2657 16.6563L14.125 12.1719C14.0942 12.0476 14.099 11.9171 14.1392 11.7955C14.1792 11.6739 14.2529 11.566 14.3516 11.4844L17.8828 8.53909C18.3437 8.15628 18.1094 7.38285 17.5078 7.34379L12.8984 7.04689C12.7727 7.03957 12.6517 6.99577 12.5505 6.92085C12.4492 6.84593 12.3719 6.74313 12.3281 6.62502L10.6094 2.29691C10.5639 2.17182 10.481 2.06379 10.372 1.98742C10.263 1.91109 10.1331 1.87012 10 1.87012C9.86687 1.87012 9.73701 1.91109 9.62799 1.98742C9.51897 2.06379 9.43611 2.17182 9.39064 2.29691L7.67189 6.62502C7.6281 6.74313 7.55081 6.84593 7.44949 6.92085C7.34825 6.99577 7.22733 7.03957 7.10159 7.04689L2.49222 7.34379C1.89064 7.38285 1.65627 8.15628 2.11716 8.53909L5.64842 11.4844C5.74715 11.566 5.82077 11.6739 5.86082 11.7955C5.90096 11.9171 5.90584 12.0476 5.87502 12.1719L4.82033 16.3282C4.64066 17.0313 5.39062 17.6016 5.9922 17.2188L9.65622 14.8985C9.75899 14.8331 9.87823 14.7984 10 14.7984C10.1218 14.7984 10.241 14.8331 10.3438 14.8985Z" fill="black" fill-opacity="0.1"/>
<path fill-rule="evenodd" clip-rule="evenodd" d="M10.0084 15.4259C10.0084 15.4259 10.0045 15.4234 9.99999 15.4234C9.99999 15.4234 9.99545 15.4234 9.99161 15.4259L6.32656 17.7468C6.32656 17.7468 5.93669 17.9949 5.48649 17.9635C5.48649 17.9635 5.0722 17.9345 4.73505 17.6782C4.73505 17.6782 4.40211 17.4252 4.25722 17.0357C4.25722 17.0357 4.10144 16.6169 4.21477 16.1734L5.26919 12.0182C5.26919 12.0182 5.27218 12.0061 5.26725 11.9911C5.26725 11.9911 5.26231 11.9761 5.25016 11.9661L1.71686 9.01905C1.71686 9.01905 1.39721 8.75358 1.29234 8.35554C1.29234 8.35554 1.19651 7.99177 1.30919 7.62772C1.30919 7.62772 1.42313 7.25961 1.71153 7.01584C1.71153 7.01584 2.02898 6.74753 2.45168 6.72008L7.06138 6.42319C7.06138 6.42319 7.07222 6.42254 7.07783 6.41839C7.07783 6.41839 7.08344 6.41424 7.08587 6.4077L7.09099 6.39435L8.80688 2.07343C8.80688 2.07343 8.94483 1.70285 9.26948 1.47549C9.26948 1.47549 9.59841 1.24512 9.99999 1.24512C9.99999 1.24512 10.4016 1.24512 10.7305 1.47549C10.7305 1.47549 11.0552 1.70285 11.1931 2.07343L12.909 6.39435L12.9141 6.4077C12.9141 6.4077 12.9165 6.41424 12.9222 6.41839C12.9222 6.41839 12.9278 6.42254 12.9347 6.42295L17.548 6.72006C17.548 6.72006 17.971 6.74753 18.2885 7.01584C18.2885 7.01584 18.5769 7.25961 18.6908 7.62772C18.6908 7.62772 18.8035 7.99177 18.7076 8.35554C18.7076 8.35554 18.6028 8.75358 18.2821 9.01989L14.7519 11.9644C14.7519 11.9644 14.7377 11.9761 14.7327 11.9911C14.7327 11.9911 14.7278 12.0061 14.7316 12.0214L15.8713 16.5022C15.8713 16.5022 15.9731 16.904 15.8312 17.2834C15.8312 17.2834 15.6992 17.6365 15.3968 17.8655C15.3968 17.8655 15.0903 18.0976 14.7131 18.1235C14.7131 18.1235 14.3039 18.1517 13.9478 17.9271L10.0092 15.4264L10.0087 15.4261L10.0084 15.4259ZM14.6147 16.8698L10.6792 14.3711L10.6787 14.3708C10.6787 14.3708 10.3681 14.1734 9.99999 14.1734C9.99999 14.1734 9.63168 14.1734 9.32088 14.3711L5.6578 16.6907C5.6578 16.6907 5.57273 16.7449 5.4915 16.6831C5.4915 16.6831 5.39368 16.6088 5.42584 16.4829L6.48079 12.3256C6.48079 12.3256 6.57221 11.9572 6.45444 11.5999C6.45444 11.5999 6.33668 11.2425 6.0467 11.0027L2.5175 8.05912C2.5175 8.05912 2.49099 8.03709 2.5033 7.99732C2.5033 7.99732 2.51213 7.96879 2.53268 7.96746L7.14173 7.6706C7.14173 7.6706 7.51638 7.64882 7.82121 7.42333C7.82121 7.42333 8.12271 7.20029 8.25498 6.85006L9.97149 2.52757L9.97797 2.51054C9.97797 2.51054 9.98049 2.5036 9.98655 2.49936C9.98655 2.49936 9.9926 2.49512 9.99999 2.49512C9.99999 2.49512 10.0074 2.49512 10.0134 2.49936C10.0134 2.49936 10.0195 2.5036 10.022 2.51054L10.0285 2.52757L11.745 6.85005C11.745 6.85005 11.8773 7.20029 12.1788 7.42333C12.1788 7.42333 12.4836 7.64882 12.8621 7.67084L17.4676 7.96748C17.4676 7.96748 17.4879 7.96879 17.4967 7.99732C17.4967 7.99732 17.509 8.03709 17.4835 8.05828L13.9512 11.0044C13.9512 11.0044 13.6633 11.2425 13.5455 11.5999C13.5455 11.5999 13.4278 11.9572 13.5184 12.3224L14.6599 16.8103C14.6599 16.8103 14.6695 16.8483 14.6422 16.869C14.6422 16.869 14.6291 16.8789 14.6147 16.8698Z" fill="#1C1C1C"/>
</svg>
